<svg xmlns="http://www.w3.org/2000/svg" width="300.671" height="179.811" viewBox="0 0 300.671 179.811">
  <defs>
    <style>
      .cls-1 {
        fill: #252f3e;
      }

      .cls-2 {
        fill: #f90;
      }
    </style>
  </defs>
  <g id="amazon-s3" transform="translate(0.032 0.011)">
    <path id="Path_1" data-name="Path 1" class="cls-1" d="M84.7,65.3a29.775,29.775,0,0,0,1.1,8.9A58.3,58.3,0,0,0,89,81.4a4.756,4.756,0,0,1,.7,2.3,3.824,3.824,0,0,1-1.9,3l-6.3,4.2a5.088,5.088,0,0,1-2.6.9,4.942,4.942,0,0,1-3-1.4,27.856,27.856,0,0,1-3.6-4.7c-1-1.7-2-3.6-3.1-5.9Q57.5,93.6,39.8,93.6c-8.4,0-15.1-2.4-20-7.2s-7.4-11.2-7.4-19.2c0-8.5,3-15.4,9.1-20.6S35.7,38.8,46,38.8a75.641,75.641,0,0,1,10.6.8c3.7.5,7.5,1.3,11.5,2.2V34.5c0-7.6-1.6-12.9-4.7-16s-8.6-4.6-16.3-4.6a43.729,43.729,0,0,0-10.8,1.3,79.681,79.681,0,0,0-10.8,3.4A36.163,36.163,0,0,1,22,19.9a4.529,4.529,0,0,1-1.6.3c-1.4,0-2.1-1-2.1-3.1V12.2A7.1,7.1,0,0,1,19,8.7a8.26,8.26,0,0,1,2.8-2.1A55.643,55.643,0,0,1,34.4,2.1,63.445,63.445,0,0,1,50,.2C61.9.2,70.6,2.9,76.2,8.3s8.3,13.6,8.3,24.6V65.3ZM44.1,80.5a30.185,30.185,0,0,0,10.3-1.8,22.891,22.891,0,0,0,9.5-6.4,15.25,15.25,0,0,0,3.4-6.4,36.3,36.3,0,0,0,1-8.7V53a93.221,93.221,0,0,0-9.2-1.7,74.158,74.158,0,0,0-9.4-.6c-6.7,0-11.6,1.3-14.9,4s-4.9,6.5-4.9,11.5c0,4.7,1.2,8.2,3.7,10.6s5.9,3.7,10.5,3.7Zm80.3,10.8a5.759,5.759,0,0,1-3.8-1,8.265,8.265,0,0,1-2.1-3.9L95,9.1a13.671,13.671,0,0,1-.9-4A2.311,2.311,0,0,1,96,2.6h10.4c1.9,0,3.2.3,3.9,1a9.878,9.878,0,0,1,2,3.9L129,73.7,144.6,7.5c.5-2,1.1-3.3,1.9-3.9a7.026,7.026,0,0,1,4-1h8c1.9,0,3.2.3,4,1a7.182,7.182,0,0,1,1.9,3.9l15.8,67,17.3-67a8.1,8.1,0,0,1,2-3.9,6.707,6.707,0,0,1,3.9-1h9.3a2.233,2.233,0,0,1,2.5,1.9v.6a8.753,8.753,0,0,1-.2,1.6,18.242,18.242,0,0,1-.7,2.5L190.2,86.5q-.9,3-2.1,3.9a6.4,6.4,0,0,1-3.8,1h-8.6c-1.9,0-3.2-.3-4-1a7.477,7.477,0,0,1-1.9-4L154.3,21.9,138.9,86.3a7.477,7.477,0,0,1-1.9,4,6.321,6.321,0,0,1-4,1ZM252.9,94a66.175,66.175,0,0,1-15.4-1.8c-5-1.2-8.9-2.5-11.5-4a7.022,7.022,0,0,1-3.1-2.8,6.71,6.71,0,0,1-.6-2.8V77.5c0-2.1.8-3.1,2.3-3.1a5.662,5.662,0,0,1,1.8.3c.6.2,1.5.6,2.5,1a52.213,52.213,0,0,0,11,3.5,59.311,59.311,0,0,0,11.9,1.2c6.3,0,11.2-1.1,14.6-3.3a10.769,10.769,0,0,0,5.2-9.5,9.647,9.647,0,0,0-2.7-7c-1.8-1.9-5.2-3.6-10.1-5.2l-14.5-4.5c-7.3-2.3-12.7-5.7-16-10.2a23.809,23.809,0,0,1-5-14.5A21.488,21.488,0,0,1,226,15.1a25.712,25.712,0,0,1,7.2-8.2,30.814,30.814,0,0,1,10.4-5.2A41.22,41.22,0,0,1,256.2,0a50.2,50.2,0,0,1,6.7.4c2.3.3,4.4.7,6.5,1.1a42.711,42.711,0,0,1,5.7,1.6,26.545,26.545,0,0,1,4.2,1.8,8.06,8.06,0,0,1,3,2.5,4.885,4.885,0,0,1,.9,3.3v4.7c0,2.1-.8,3.2-2.3,3.2a12.939,12.939,0,0,1-3.8-1.2,45.221,45.221,0,0,0-19.2-3.9c-5.7,0-10.2.9-13.3,2.8s-4.7,4.8-4.7,8.9a9.1,9.1,0,0,0,3,7.1c2,1.9,5.7,3.8,11,5.5l14.2,4.5c7.2,2.3,12.4,5.5,15.5,9.6a22.222,22.222,0,0,1,4.6,14,24.627,24.627,0,0,1-2.6,11.6,28.19,28.19,0,0,1-7.3,8.8,31.451,31.451,0,0,1-11.1,5.6A49,49,0,0,1,252.9,94Z"/>
    <path id="Path_2" data-name="Path 2" class="cls-2" d="M271.8,142.6c-32.9,24.3-80.7,37.2-121.8,37.2-57.6,0-109.5-21.3-148.7-56.7-3.1-2.8-.3-6.6,3.4-4.4,42.4,24.6,94.7,39.5,148.8,39.5A296.8,296.8,0,0,0,267,135c5.5-2.5,10.2,3.6,4.8,7.6Z"/>
    <path id="Path_3" data-name="Path 3" class="cls-2" d="M285.5,127c-4.2-5.4-27.8-2.6-38.5-1.3-3.2.4-3.7-2.4-.8-4.5,18.8-13.2,49.7-9.4,53.3-5s-1,35.4-18.6,50.2c-2.7,2.3-5.3,1.1-4.1-1.9C280.8,154.6,289.7,132.3,285.5,127Z"/>
  </g>
</svg>
