<svg id="Layer_1" data-name="Layer 1" xmlns="http://www.w3.org/2000/svg" width="74.83" height="40.08" viewBox="0 0 74.83 40.08">
  <defs>
    <style>
      .cls-1 {
        fill: #43b6ff;
      }

      .cls-2 {
        fill: none;
      }

      .cls-3 {
        isolation: isolate;
      }

      .cls-4 {
        fill: #fff;
      }

      .cls-5 {
        fill: #005fd4;
      }

      .cls-6 {
        fill: #35adff;
      }
    </style>
  </defs>
  <g id="Group_1340" data-name="Group 1340">
    <circle class="cls-1" cx="23.35" cy="20.04" r="20.04"/>
    <rect class="cls-2" y="5.62" width="73.9" height="30.2"/>
    <g class="cls-3">
      <path class="cls-4" d="M24.53,24H21.48v8.82H16.71V10.52h8.94a9.38,9.38,0,0,1,3,.45,6.24,6.24,0,0,1,2.29,1.32,6,6,0,0,1,1.46,2.17,8.06,8.06,0,0,1,.53,3,6,6,0,0,1-1,3.43A5.68,5.68,0,0,1,29.07,23l4.84,9.81H28.59Zm.29-9.42H21.48v5.34h2.85a12.77,12.77,0,0,0,1.38-.08A4,4,0,0,0,27,19.53a2.38,2.38,0,0,0,.87-.77,2.41,2.41,0,0,0,.33-1.35,3.48,3.48,0,0,0-.21-1.29,2.24,2.24,0,0,0-.61-.85A3.81,3.81,0,0,0,24.82,14.6Z" transform="translate(-1.1 -1.48)"/>
      <path class="cls-5" d="M44.61,24.08H41.2v8.76H36.42V10.52h8.22a13.12,13.12,0,0,1,3.16.36,6.88,6.88,0,0,1,2.52,1.17A5.52,5.52,0,0,1,52,14.16a7.41,7.41,0,0,1,.61,3.17,6.13,6.13,0,0,1-2.12,5A9,9,0,0,1,44.61,24.08Zm-.37-9.48h-3V20h3a8.54,8.54,0,0,0,1.37-.11,3.33,3.33,0,0,0,1.14-.38,2,2,0,0,0,.8-.79,2.63,2.63,0,0,0,.3-1.34,3.56,3.56,0,0,0-.21-1.33,1.92,1.92,0,0,0-.6-.81A4.7,4.7,0,0,0,44.24,14.6Z" transform="translate(-1.1 -1.48)"/>
      <path class="cls-6" d="M71.67,17.63,67.33,32.84H63.7L59.41,17.66V32.84H55.14V10.52h6.4l4,14.34,4-14.34h6.44V32.84H71.67Z" transform="translate(-1.1 -1.48)"/>
    </g>
  </g>
</svg>
