<svg xmlns="http://www.w3.org/2000/svg" width="29.265" height="29.265" viewBox="0 0 29.265 29.265">
  <g id="nodata" transform="translate(0 -59.812)">
    <g id="Group_1732" data-name="Group 1732" transform="translate(0 59.812)">
      <path id="Path_434" data-name="Path 434" d="M366.194,79.359h4.478l-4.477-4.494Z" transform="translate(-342.379 -73.886)" fill="#a7b2ca"/>
      <path id="Path_436" data-name="Path 436" d="M4.275,401.64l-3.7,3.7A1.951,1.951,0,1,0,3.33,408.1l3.7-3.7a8.849,8.849,0,0,1-2.759-2.759Z" transform="translate(0 -379.41)" fill="#a7b2ca"/>
      <path id="Path_437" data-name="Path 437" d="M176.135,59.812H165v8.834A8.791,8.791,0,0,1,171.487,84.2h12.048V67.236h-7.4Zm1.547,11.731h3.9v1.951h-3.9Zm0,3.9h3.9V77.4h-3.9Zm0,3.9h3.9V81.3h-3.9Z" transform="translate(-154.269 -59.812)" fill="#a7b2ca"/>
      <path id="Path_438" data-name="Path 438" d="M151.951,299.812a1.951,1.951,0,1,0,1.951,1.951A1.953,1.953,0,0,0,151.951,299.812Z" transform="translate(-140.245 -284.204)" fill="#a7b2ca"/>
      <path id="Path_439" data-name="Path 439" d="M81.829,224.812A6.829,6.829,0,0,0,75,231.641c.36,9.058,13.3,9.055,13.657,0A6.828,6.828,0,0,0,81.829,224.812Zm0,10.731a3.9,3.9,0,1,1,3.9-3.9A3.906,3.906,0,0,1,81.829,235.543Z" transform="translate(-70.122 -214.081)" fill="#a7b2ca"/>
    </g>
  </g>
</svg>
